<svg width="24" height="24" viewBox="0 0 24 24" fill="none" xmlns="http://www.w3.org/2000/svg">
<rect width="24" height="24" rx="12" fill="#1F4E20"/>
<path d="M10.4875 16.5276L9.2463 14.0801C9.2463 14.0801 9.0363 12.7038 9.1763 10.8813C9.2988 9.2913 9.60755 8.17255 10.4338 7.1763C11.075 6.4038 12.095 5.62005 13.1088 5.25255C14.1225 4.88505 14.2275 4.86755 14.2275 4.99005C14.2275 5.11255 12.6375 5.8313 11.5363 7.3688C10.435 8.9063 10.4875 10.3751 10.4175 11.3363C10.3475 12.2976 10.4875 16.5276 10.4875 16.5276Z" fill="white"/>
<path d="M6.43246 10.0263C7.09996 11.2225 7.73371 13.4563 8.46496 15.1413C9.14621 16.7138 9.85871 17.9263 10.4875 18.52C11.1162 19.1138 11.69 19.0613 11.9387 18.8525C12.3125 18.5375 12.1162 17.6638 12.1137 17.1575C12.1087 16.2525 12.2812 15.6275 12.5512 15.165C12.7887 14.7588 13.2337 14.3463 13.705 14.4875C14.2712 14.6575 14.6487 15.2175 14.8237 15.48C14.9987 15.7425 15.2612 16.2663 15.3825 16.2663C15.5037 16.2663 15.305 14.915 14.7287 14.1225C14.1587 13.3388 13.34 13.185 12.605 13.505C10.9637 14.22 10.9175 16.39 10.9175 16.39C10.9175 16.39 9.87746 15.5138 9.16121 13.225C8.98621 12.6663 8.43621 10.6813 7.88996 9.87128C7.04996 8.62503 6.15246 8.36503 5.64621 8.19003C5.13996 8.01503 4.52746 7.84003 4.50996 7.94503C4.49246 8.05128 5.68121 8.68003 6.43246 10.0263Z" fill="white"/>
<path d="M11.43 17.1988C11.38 16.8513 11.2225 15.9426 11.285 14.8013C11.3275 14.0076 11.5462 12.6888 12.7487 12.2563C13.7162 11.9088 14.4712 11.9051 15.5012 12.4001C16.4562 12.8588 15.9962 12.2463 15.5475 12.0138C15.2362 11.8526 13.91 11.1826 12.5962 11.6288C11.0687 12.1476 10.6612 13.9726 10.6612 13.9726C10.6612 13.9726 10.55 11.9876 10.9587 11.0088C11.3675 10.0288 12.1025 9.22756 11.9012 9.16131C11.8262 9.13631 10.8987 9.51505 10.3762 10.7113C9.81872 11.9888 9.79372 13.1426 9.82997 13.8001C9.86622 14.4576 9.95997 15.1038 9.95997 15.1038C9.95997 15.1038 10.22 15.7076 10.5262 16.0988C10.81 16.4626 11.445 17.3051 11.43 17.1988Z" fill="white"/>
<path d="M12.4037 7.35628C12.3424 7.34378 11.6924 7.59378 11.3649 8.37878C11.0374 9.16378 11.3162 9.81128 11.3162 9.81128C11.3162 9.81128 12.1912 9.05003 12.3549 8.57628C12.5187 8.10128 12.4862 7.37253 12.4037 7.35628Z" fill="white"/>
<path d="M14.0413 9.5812C14.05 9.5412 13.3788 8.9762 12.8625 8.96745C12.3475 8.9587 11.7175 9.4012 11.7175 9.4012C11.7175 9.4012 11.9325 9.9162 12.7488 10.0062C13.3375 10.0725 14.025 9.65495 14.0413 9.5812ZM12.65 8.63245C12.7075 8.6812 13.37 8.60745 13.7538 8.1537C14.1575 7.6762 14.1638 6.59495 14.0413 6.59495C13.895 6.59495 13.7963 6.74995 13.5425 6.9062C13.2888 7.0612 12.8225 7.51995 12.7 7.8712C12.5763 8.2237 12.5925 8.5837 12.65 8.63245ZM13.3013 8.70995C13.315 8.85495 13.8275 9.3337 14.3963 9.3587C14.965 9.3837 15.4675 9.1687 15.4675 9.0837C15.4675 8.9987 15.105 8.36245 14.4763 8.29995C13.7963 8.2337 13.295 8.6437 13.3013 8.70995ZM14.1388 8.09245C14.2063 8.2087 14.9888 8.06245 15.3563 7.55995C15.695 7.09745 15.6313 6.57495 15.595 6.50745C15.5588 6.43995 15.0138 6.49495 14.5788 6.99745C14.2188 7.4137 14.0775 7.98495 14.1388 8.09245ZM14.9525 8.09245C14.9488 8.20245 15.2763 8.64995 15.65 8.8212C16.2125 9.0787 16.9288 8.92495 16.96 8.82745C16.99 8.72995 16.6538 8.06995 16.2013 7.87245C15.6688 7.63995 14.9588 7.91495 14.9525 8.09245ZM15.755 7.58995C15.755 7.73745 16.6363 7.71245 16.9488 7.4987C17.2613 7.28495 17.585 6.7087 17.6588 6.62995C17.7325 6.5512 17.745 6.4712 17.585 6.42245C17.4263 6.3737 16.6425 6.3487 16.19 6.6862C15.7375 7.0237 15.755 7.55995 15.755 7.58995ZM16.7463 7.7862C16.665 7.83245 16.7888 7.9887 16.85 8.1162C16.9113 8.24495 17.1188 8.76495 17.5725 8.9912C18.0063 9.20745 18.595 9.1937 18.6188 9.16245C18.6438 9.13245 18.5163 8.40495 18.0738 8.0737C17.535 7.66995 16.8988 7.7012 16.7463 7.7862ZM17.4125 7.50495C17.4275 7.5762 18.025 7.88995 18.5325 7.9337C19.04 7.97745 19.5425 7.4687 19.5488 7.4137C19.555 7.3587 19.09 6.86245 18.5638 6.8812C17.8725 6.90495 17.395 7.4187 17.4125 7.50495ZM15.1738 10.21C15.1638 10.0937 14.2125 10.075 13.73 10.5775C13.2463 11.0787 13.2338 11.5562 13.2338 11.5562L13.5825 11.7825C13.5825 11.7825 14.25 11.4887 14.61 11.14C15.03 10.7337 15.185 10.35 15.1738 10.21Z" fill="white"/>
<path d="M14.3075 13.4399C14.4612 13.4462 14.43 12.7974 14.2825 12.3937C14.1262 11.9649 13.7137 11.6599 13.7137 11.6599L13.2 11.7699C13.2 11.7699 13.2112 12.2787 13.4587 12.7199C13.7875 13.3024 14.1662 13.4337 14.3075 13.4399ZM14.4512 11.8737C14.4512 11.8737 14.4 12.3974 14.6412 12.8837C14.8925 13.3912 15.4425 13.6849 15.565 13.6362C15.6875 13.5874 15.6262 12.9687 15.5462 12.6749C15.4662 12.3812 15.1 11.9224 15.1 11.9224L14.4512 11.8737ZM14.3837 11.6174C14.3837 11.6174 14.775 10.9812 15.2525 10.7849C15.9337 10.5049 16.8012 10.8524 16.8062 10.9812C16.8125 11.1099 16.2187 11.5437 15.925 11.6549C15.6312 11.7649 15.0312 11.8687 15.0312 11.8687L14.3837 11.6174ZM16.8312 11.6349C16.3112 11.6574 15.7975 11.9537 15.785 12.1187C15.7725 12.2837 16.2312 12.6512 16.8737 12.6512C17.5162 12.6512 17.9137 12.2224 17.9137 12.1612C17.915 12.0999 17.5475 11.6049 16.8312 11.6349Z" fill="white"/>
<path d="M15.9388 12.3475C15.8026 12.3225 15.6576 13.015 15.8901 13.565C16.1226 14.1162 16.7463 14.3912 16.7963 14.41C16.9563 14.47 16.9126 13.4925 16.7226 13.0937C16.5488 12.7312 16.1338 12.385 15.9388 12.3475ZM16.8313 12.8337C16.7776 12.9275 16.8988 13.5562 17.1801 13.9225C17.6201 14.4975 18.2876 14.54 18.3551 14.51C18.4226 14.48 18.3426 13.6037 17.9151 13.1887C17.5038 12.79 16.8801 12.7475 16.8313 12.8337Z" fill="white"/>
</svg>
