<svg width="35" height="35" viewBox="0 0 35 35" fill="none" xmlns="http://www.w3.org/2000/svg">
<path d="M25.0464 22.8477H9.95264L13.6787 16.7373V4.51208H21.3189V16.7344L25.0464 22.8477Z" fill="#C2F3FF"/>
<path d="M28.85 31.8924C28.5925 32.3874 28.2047 32.8026 27.7285 33.0933C27.2522 33.384 26.7056 33.5391 26.1477 33.5417H8.85038C8.29201 33.539 7.74498 33.3839 7.26835 33.093C6.79173 32.8021 6.4036 32.3866 6.14587 31.8912C5.88814 31.3959 5.77061 30.8396 5.80595 30.2823C5.8413 29.7251 6.02818 29.188 6.34642 28.7292L9.95142 22.8478H25.0452L28.6516 28.7292C28.97 29.1882 29.1568 29.7256 29.1918 30.2831C29.2268 30.8407 29.1085 31.3972 28.85 31.8924Z" fill="#C9F7CA"/>
<path d="M28.6517 28.7292L25.0452 22.8478H17.3452C16.5129 25.2077 15.14 27.3402 13.3363 29.0748C11.5326 30.8093 9.34816 32.0979 6.95752 32.8374C7.48929 33.2828 8.15826 33.5316 8.85189 33.5417H26.1463C26.7048 33.5393 27.252 33.3843 27.7288 33.0936C28.2057 32.8028 28.594 32.3873 28.8519 31.8919C29.1098 31.3965 29.2275 30.8401 29.1922 30.2827C29.1569 29.7253 28.97 29.1881 28.6517 28.7292Z" fill="#78EB7B"/>
<path d="M18.2625 4.51354V17.5292C18.2593 19.3411 17.9492 21.1394 17.3452 22.8477H25.0452L21.3177 16.7373V4.51208L18.2625 4.51354Z" fill="#66E1FF"/>
<path d="M28.85 31.8924C28.5925 32.3874 28.2047 32.8026 27.7285 33.0933C27.2522 33.384 26.7056 33.5391 26.1477 33.5417H8.85038C8.29201 33.539 7.74498 33.3839 7.26835 33.093C6.79173 32.8021 6.4036 32.3866 6.14587 31.8912C5.88814 31.3959 5.77061 30.8396 5.80595 30.2823C5.8413 29.7251 6.02818 29.188 6.34642 28.7292L9.95142 22.8478H25.0452L28.6516 28.7292C28.97 29.1882 29.1568 29.7256 29.1918 30.2831C29.2268 30.8407 29.1085 31.3972 28.85 31.8924Z" stroke="#191919" stroke-linecap="round" stroke-linejoin="round"/>
<path d="M25.0464 22.8477H9.95264L13.6787 16.7373V4.51208H21.3189V16.7344L25.0464 22.8477Z" stroke="#191919" stroke-linecap="round" stroke-linejoin="round"/>
<path d="M24.3729 2.98671C24.3729 3.18722 24.3334 3.38577 24.2566 3.57102C24.1799 3.75627 24.0674 3.92459 23.9256 4.06637C23.7839 4.20815 23.6155 4.32062 23.4303 4.39736C23.245 4.47409 23.0465 4.51358 22.846 4.51358H12.1506C11.7536 4.50132 11.377 4.335 11.1005 4.04985C10.824 3.76471 10.6694 3.38314 10.6694 2.98598C10.6694 2.58881 10.824 2.20725 11.1005 1.9221C11.377 1.63696 11.7536 1.47064 12.1506 1.45837H22.846C23.2511 1.45914 23.6394 1.62041 23.9258 1.90686C24.2123 2.19332 24.3735 2.58161 24.3743 2.98671" fill="#C2F3FF"/>
<path d="M24.3729 2.98671C24.3729 3.18722 24.3334 3.38577 24.2566 3.57102C24.1799 3.75627 24.0674 3.92459 23.9256 4.06637C23.7839 4.20815 23.6155 4.32062 23.4303 4.39736C23.245 4.47409 23.0465 4.51358 22.846 4.51358H12.1506C11.7536 4.50132 11.377 4.335 11.1005 4.04985C10.824 3.76471 10.6694 3.38314 10.6694 2.98598C10.6694 2.58881 10.824 2.20725 11.1005 1.9221C11.377 1.63696 11.7536 1.47064 12.1506 1.45837H22.846C23.2511 1.45914 23.6394 1.62041 23.9258 1.90686C24.2123 2.19332 24.3735 2.58161 24.3743 2.98671" stroke="#191919" stroke-linecap="round" stroke-linejoin="round"/>
<path d="M21.3174 7.56885H18.2622M21.3174 13.6793H18.2622M21.3174 10.6255H16.7354" stroke="#191919" stroke-linecap="round" stroke-linejoin="round"/>
<path d="M13.679 30.4865C14.2868 30.4865 14.8697 30.245 15.2995 29.8153C15.7293 29.3855 15.9707 28.8025 15.9707 28.1947C15.9707 27.5869 15.7293 27.004 15.2995 26.5742C14.8697 26.1444 14.2868 25.903 13.679 25.903C13.0712 25.903 12.4882 26.1444 12.0585 26.5742C11.6287 27.004 11.3872 27.5869 11.3872 28.1947C11.3872 28.8025 11.6287 29.3855 12.0585 29.8153C12.4882 30.245 13.0712 30.4865 13.679 30.4865Z" fill="#D480FF" stroke="#191919" stroke-linecap="round" stroke-linejoin="round"/>
<path d="M19.7896 25.5209C19.84 25.5203 19.89 25.5298 19.9367 25.5488C19.9834 25.5677 20.0258 25.5958 20.0615 25.6314C20.0973 25.667 20.1255 25.7093 20.1447 25.756C20.1638 25.8026 20.1735 25.8526 20.1731 25.903M22.8462 30.1044C22.8965 30.1041 22.9464 30.1137 22.9929 30.1327C23.0394 30.1518 23.0817 30.1799 23.1173 30.2155C23.1528 30.251 23.1809 30.2933 23.2 30.3398C23.2191 30.3864 23.2287 30.4362 23.2283 30.4865C23.2287 30.5368 23.2191 30.5867 23.2 30.6332C23.1809 30.6797 23.1528 30.722 23.1173 30.7576C23.0817 30.7931 23.0394 30.8212 22.9929 30.8403C22.9464 30.8594 22.8965 30.869 22.8462 30.8686C22.7959 30.869 22.7461 30.8594 22.6995 30.8403C22.653 30.8212 22.6107 30.7931 22.5752 30.7576C22.5396 30.722 22.5115 30.6797 22.4924 30.6332C22.4734 30.5867 22.4637 30.5368 22.4641 30.4865C22.4637 30.4362 22.4734 30.3864 22.4924 30.3398C22.5115 30.2933 22.5396 30.251 22.5752 30.2155C22.6107 30.1799 22.653 30.1518 22.6995 30.1327C22.7461 30.1137 22.7959 30.1041 22.8462 30.1044Z" stroke="#191919" stroke-linecap="round" stroke-linejoin="round"/>
<path d="M19.7908 25.5209C19.7405 25.5205 19.6906 25.5301 19.6441 25.5492C19.5976 25.5682 19.5553 25.5964 19.5197 25.6319C19.4842 25.6675 19.4561 25.7098 19.437 25.7563C19.4179 25.8028 19.4083 25.8527 19.4087 25.903C19.4083 25.9531 19.4179 26.0029 19.4369 26.0493C19.4558 26.0957 19.4838 26.1379 19.5192 26.1735C19.5546 26.209 19.5967 26.2372 19.6431 26.2563C19.6895 26.2755 19.7392 26.2852 19.7893 26.2851M20.1729 25.903C20.1733 25.9533 20.1636 26.0031 20.1446 26.0496C20.1255 26.0962 20.0974 26.1384 20.0618 26.174C20.0263 26.2096 19.984 26.2377 19.9375 26.2568C19.8909 26.2758 19.8411 26.2854 19.7908 26.2851" stroke="#191919" stroke-linecap="round" stroke-linejoin="round"/>
</svg>
