<svg width="35" height="35" viewBox="0 0 35 35" fill="none" xmlns="http://www.w3.org/2000/svg">
<path d="M32.8125 19.6875H26.25C25.6698 19.6875 25.1134 19.457 24.7032 19.0468C24.293 18.6366 24.0625 18.0802 24.0625 17.5V6.5625C24.0625 5.98234 24.293 5.42594 24.7032 5.0157C25.1134 4.60547 25.6698 4.375 26.25 4.375H32.8125V6.5625H26.25V17.5H32.8125V19.6875Z" fill="#9E9E9E"/>
<path d="M19.6875 6.5625C20.8956 6.5625 21.875 5.58312 21.875 4.375C21.875 3.16688 20.8956 2.1875 19.6875 2.1875C18.4794 2.1875 17.5 3.16688 17.5 4.375C17.5 5.58312 18.4794 6.5625 19.6875 6.5625Z" fill="#9E9E9E"/>
<path d="M10.9375 22.0763V13.125H8.75001V22.0763C8.02024 22.3343 7.40518 22.842 7.01353 23.5096C6.62189 24.1772 6.47887 24.9618 6.60976 25.7247C6.74065 26.4876 7.13702 27.1796 7.72882 27.6786C8.32061 28.1775 9.06972 28.4511 9.84376 28.4511C10.6178 28.4511 11.3669 28.1775 11.9587 27.6786C12.5505 27.1796 12.9469 26.4876 13.0778 25.7247C13.2086 24.9618 13.0656 24.1772 12.674 23.5096C12.2823 22.842 11.6673 22.3343 10.9375 22.0763Z" fill="#9E9E9E"/>
<path d="M9.84372 32.8125C8.33651 32.8142 6.86239 32.3705 5.60647 31.5373C4.35055 30.704 3.36883 29.5182 2.78457 28.1288C2.20031 26.7395 2.03956 25.2084 2.32252 23.728C2.60547 22.2476 3.31951 20.8838 4.37497 19.8078V7.65625C4.37497 6.20585 4.95115 4.81485 5.97673 3.78926C7.00232 2.76367 8.39332 2.1875 9.84372 2.1875C11.2941 2.1875 12.6851 2.76367 13.7107 3.78926C14.7363 4.81485 15.3125 6.20585 15.3125 7.65625V19.8078C16.3679 20.8838 17.082 22.2476 17.3649 23.728C17.6479 25.2084 17.4871 26.7395 16.9029 28.1288C16.3186 29.5182 15.3369 30.704 14.081 31.5373C12.8251 32.3705 11.3509 32.8142 9.84372 32.8125ZM9.84372 4.375C8.97375 4.37587 8.13966 4.72185 7.52449 5.33702C6.90932 5.95218 6.56334 6.78627 6.56247 7.65625V20.7627L6.19935 21.0897C5.37344 21.8279 4.79117 22.7995 4.52961 23.8759C4.26805 24.9523 4.33955 26.0827 4.73462 27.1176C5.1297 28.1525 5.82973 29.043 6.74206 29.6713C7.65439 30.2995 8.736 30.6359 9.84372 30.6359C10.9515 30.6359 12.0331 30.2995 12.9454 29.6713C13.8577 29.043 14.5578 28.1525 14.9528 27.1176C15.3479 26.0827 15.4194 24.9523 15.1578 23.8759C14.8963 22.7995 14.314 21.8279 13.4881 21.0897L13.125 20.7627V7.65625C13.1241 6.78627 12.7781 5.95218 12.163 5.33702C11.5478 4.72185 10.7137 4.37587 9.84372 4.375Z" fill="#9E9E9E"/>
</svg>
