<svg width="35" height="35" viewBox="0 0 35 35" fill="none" xmlns="http://www.w3.org/2000/svg">
<path d="M21.6782 19.6042H24.4797M21.6782 12.5998H24.4797M21.6782 5.59399H24.4797" stroke="#191919" stroke-linecap="round" stroke-linejoin="round"/>
<path d="M18.8899 23.1349V4.24951C18.8899 3.50941 18.5959 2.79963 18.0726 2.27631C17.5492 1.75298 16.8395 1.45898 16.0994 1.45898C15.3593 1.45898 14.6495 1.75298 14.1262 2.27631C13.6028 2.79963 13.3088 3.50941 13.3088 4.24951V23.1349C12.2457 23.7491 11.415 24.697 10.9454 25.8314C10.4758 26.9658 10.3936 28.2235 10.7115 29.4094C11.0295 30.5953 11.7298 31.6432 12.704 32.3906C13.6781 33.1379 14.8716 33.543 16.0994 33.543C17.3272 33.543 18.5207 33.1379 19.4948 32.3906C20.4689 31.6432 21.1692 30.5953 21.4872 29.4094C21.8052 28.2235 21.723 26.9658 21.2534 25.8314C20.7838 24.697 19.953 23.7491 18.8899 23.1349Z" fill="#FF808C"/>
<path d="M16.0988 29.3533C16.4685 29.3533 16.8231 29.2064 17.0846 28.9449C17.346 28.6835 17.4929 28.3289 17.4929 27.9591C17.4929 27.5894 17.346 27.2347 17.0846 26.9733C16.8231 26.7118 16.4685 26.5649 16.0988 26.5649C15.729 26.5649 15.3744 26.7118 15.1129 26.9733C14.8515 27.2347 14.7046 27.5894 14.7046 27.9591C14.7046 28.3289 14.8515 28.6835 15.1129 28.9449C15.3744 29.2064 15.729 29.3533 16.0988 29.3533Z" fill="#FFEF5E" stroke="#191919" stroke-linecap="round" stroke-linejoin="round"/>
<path d="M16.1001 1.45972C15.7337 1.45914 15.3708 1.53086 15.0321 1.67077C14.6935 1.81067 14.3858 2.01602 14.1266 2.27503C13.8675 2.53405 13.662 2.84165 13.5219 3.18021C13.3818 3.51878 13.3099 3.88165 13.3103 4.24805V11.5368H18.8884V4.24951C18.889 3.88336 18.8174 3.52068 18.6777 3.18224C18.5379 2.84379 18.3329 2.53621 18.0741 2.2771C17.8154 2.01798 17.5082 1.81242 17.17 1.67217C16.8317 1.53191 16.4692 1.45972 16.103 1.45972H16.1001Z" fill="white"/>
<path d="M16.1001 26.5635V5.64367M18.8899 23.1349V4.24951C18.8899 3.50941 18.5959 2.79963 18.0726 2.27631C17.5492 1.75298 16.8395 1.45898 16.0994 1.45898C15.3593 1.45898 14.6495 1.75298 14.1262 2.27631C13.6028 2.79963 13.3088 3.50941 13.3088 4.24951V23.1349C12.2457 23.7491 11.415 24.697 10.9454 25.8314C10.4758 26.9658 10.3936 28.2235 10.7115 29.4094C11.0295 30.5953 11.7298 31.6432 12.704 32.3906C13.6781 33.1379 14.8716 33.543 16.0994 33.543C17.3272 33.543 18.5207 33.1379 19.4948 32.3906C20.4689 31.6432 21.1692 30.5953 21.4872 29.4094C21.8052 28.2235 21.723 26.9658 21.2534 25.8314C20.7838 24.697 19.953 23.7491 18.8899 23.1349Z" stroke="#191919" stroke-linecap="round" stroke-linejoin="round"/>
</svg>
